<?xml version="1.0" encoding="UTF-8" standalone="no"?><!DOCTYPE svg PUBLIC "-//W3C//DTD SVG 1.1//EN" "http://www.w3.org/Graphics/SVG/1.1/DTD/svg11.dtd"><svg width="100%" height="100%" viewBox="0 0 200 200" version="1.1" xmlns="http://www.w3.org/2000/svg" xmlns:xlink="http://www.w3.org/1999/xlink" xml:space="preserve" xmlns:serif="http://www.serif.com/" style="fill-rule:evenodd;clip-rule:evenodd;stroke-linejoin:round;stroke-miterlimit:2;"><path id="path125" d="M37.954,189.639c-4.326,-1.378 -7.597,-4.196 -9.477,-8.165c-1.184,-2.5 -1.221,-2.739 -1.407,-9.06l-0.191,-6.492l-2.482,-0.219c-4.877,-0.429 -8.653,-2.464 -11.456,-6.173c-2.974,-3.935 -2.849,-2.757 -2.974,-27.958c-0.107,-21.702 -0.084,-22.602 0.664,-25.063c1.915,-6.304 6.923,-10.272 13.768,-10.908l2.656,-0.247l0.206,-74.17l1.023,-2.184c1.269,-2.706 3.906,-5.575 6.348,-6.903c4.141,-2.254 2.482,-2.181 48.752,-2.162c32.207,0.013 42.66,0.128 43.461,0.477c1.234,0.538 44.368,43.057 45.405,44.757c0.656,1.075 0.701,2.411 0.702,20.666l0.002,19.517l2.932,0.222c5.691,0.43 10.34,3.68 12.853,8.985l1.209,2.551l0.11,22.325c0.07,14.21 -0.032,22.986 -0.281,24.146c-0.646,3.015 -1.958,5.341 -4.393,7.792c-2.695,2.711 -5.369,3.914 -9.566,4.302l-2.674,0.247l-0.19,6.492c-0.186,6.315 -0.224,6.562 -1.404,9.051c-1.542,3.256 -4.048,5.762 -7.303,7.304l-2.559,1.212l-61.104,0.073c-48.616,0.057 -61.415,-0.028 -62.63,-0.415l-0,0Zm122.727,-9.422c2.685,-1.527 2.902,-2.145 3.039,-8.662l0.122,-5.824l-127.607,-0l0,5.609c0,5.17 0.067,5.707 0.849,6.848c0.466,0.681 1.454,1.589 2.196,2.019c1.342,0.779 1.594,0.782 60.68,0.791c59.285,0.009 59.334,0.009 60.721,-0.781Zm17.472,-24.63c0.58,-0.433 1.409,-1.262 1.842,-1.842c0.774,-1.037 0.788,-1.429 0.788,-23.148c-0,-21.719 -0.013,-22.112 -0.788,-23.149c-0.433,-0.58 -1.262,-1.409 -1.842,-1.842l-1.054,-0.787l-154.174,-0l-1.055,0.787c-0.58,0.433 -1.408,1.262 -1.842,1.842c-0.769,1.03 -0.789,1.529 -0.899,22.126c-0.062,11.59 -0.012,21.626 0.11,22.302c0.278,1.532 1.884,3.483 3.42,4.154c0.96,0.419 14.67,0.494 77.802,0.427l76.638,-0.082l1.054,-0.788Zm-89.307,-1.897c-2.217,-1.233 -2.201,-1.069 -2.199,-21.833c0.001,-18.158 0.035,-19.074 0.743,-20.235c1.237,-2.028 1.593,-2.091 11.021,-1.96c8.635,0.121 8.673,0.125 10.684,1.185c4.443,2.341 6.967,6.187 7.259,11.063c0.208,3.463 -0.304,5.646 -1.923,8.198c-1.093,1.725 -1.112,1.826 -0.498,2.763c1.893,2.89 2.309,4.339 2.309,8.037c0,3.11 -0.141,3.927 -0.99,5.728c-1.255,2.66 -3.622,5.024 -6.394,6.385c-2.144,1.053 -2.238,1.063 -10.565,1.157c-6.938,0.077 -8.583,-0.008 -9.447,-0.488Zm16.332,-9.038c2.066,-0.941 2.805,-4.641 1.309,-6.544c-1.038,-1.319 -2.881,-1.778 -7.144,-1.781l-3.532,-0.001l-0,8.783l4.183,0c2.429,0 4.602,-0.191 5.184,-0.456l0,-0.001Zm-1.609,-17.36c0.87,-0.144 1.908,-0.691 2.578,-1.361c0.931,-0.932 1.121,-1.434 1.121,-2.972c-0,-1.538 -0.19,-2.04 -1.121,-2.972c-1.292,-1.292 -2.672,-1.601 -7.185,-1.607l-3.151,-0.004l-0,9.165l3.151,-0.004c1.732,-0.003 3.806,-0.113 4.607,-0.245l-0,0Zm21.984,25.262c-1.325,-0.72 -2.39,-2.998 -2.094,-4.479c0.126,-0.63 2.375,-4.648 4.999,-8.93l4.77,-7.785l-4.738,-7.733c-2.606,-4.253 -4.855,-8.197 -4.997,-8.763c-0.367,-1.463 0.447,-3.599 1.715,-4.501c1.308,-0.932 4.052,-1.029 5.255,-0.187c0.458,0.321 2.49,3.251 4.516,6.511l3.684,5.927l3.752,-6.056c3.963,-6.395 4.551,-6.966 7.176,-6.966c1.675,0 2.905,0.764 3.697,2.296c1.096,2.119 0.771,3.035 -3.685,10.368c-2.34,3.852 -4.532,7.477 -4.869,8.054c-0.563,0.965 -0.563,1.136 0,2.101c0.337,0.577 2.529,4.202 4.869,8.054c4.456,7.333 4.781,8.249 3.685,10.368c-0.792,1.532 -2.022,2.295 -3.697,2.295c-2.625,0 -3.213,-0.571 -7.176,-6.966l-3.752,-6.055l-3.684,5.927c-2.026,3.26 -4.058,6.19 -4.516,6.511c-1.037,0.726 -3.582,0.731 -4.91,0.01l0,-0.001Zm-77.95,-1.685l-1.247,-1.114l-0.107,-18.257c-0.113,-19.431 -0.09,-19.718 1.737,-21.155c0.907,-0.713 1.607,-0.751 13.836,-0.751c12.636,0 12.902,0.016 13.934,0.828c1.975,1.553 2.402,3.621 1.236,5.984c-0.898,1.821 -1.824,1.972 -12.096,1.972l-9.566,0l0,10.311l5.366,0c5.968,0 7.181,0.338 8.185,2.279c0.99,1.914 0.749,3.657 -0.727,5.269l-1.306,1.427l-11.518,0.246l0,5.103c0,2.807 -0.17,5.55 -0.378,6.097c-1.14,2.999 -4.943,3.91 -7.349,1.761l-0,-0Zm116.185,-72.009l0,-16.603l-40.42,-0.21l-0.985,-0.927c-0.543,-0.509 -1.157,-1.54 -1.365,-2.291c-0.228,-0.82 -0.38,-9.031 -0.382,-20.555l-0.001,-19.191l-80.007,0.003l-1.453,0.88c-0.799,0.483 -1.786,1.385 -2.193,2.003c-0.72,1.092 -0.741,2.143 -0.743,37.308l-0.003,36.184l127.553,0l-0.001,-16.601Zm-19.858,-39.345c-7.455,-7.457 -13.683,-13.558 -13.842,-13.558c-0.159,0 -0.288,6.101 -0.288,13.558l-0,13.557l27.683,0l-13.553,-13.557Z" style="fill:#00659b;fill-rule:nonzero;"/></svg>