<?xml version="1.0" encoding="UTF-8" standalone="no"?><!DOCTYPE svg PUBLIC "-//W3C//DTD SVG 1.1//EN" "http://www.w3.org/Graphics/SVG/1.1/DTD/svg11.dtd"><svg width="100%" height="100%" viewBox="0 0 200 200" version="1.1" xmlns="http://www.w3.org/2000/svg" xmlns:xlink="http://www.w3.org/1999/xlink" xml:space="preserve" xmlns:serif="http://www.serif.com/" style="fill-rule:evenodd;clip-rule:evenodd;stroke-linejoin:round;stroke-miterlimit:2;"><path d="M32.159,181.921c-11.38,-1.574 -20.86,-10.045 -24.125,-21.558c-0.651,-2.294 -0.687,-5.251 -0.687,-56.18c0,-50.93 0.036,-53.887 0.687,-56.181c3.287,-11.59 12.565,-19.819 24.164,-21.432c1.706,-0.237 11.357,-0.394 24.236,-0.394l21.401,-0l0,20.676l-22.011,0c-19.509,0 -22.147,0.069 -23.214,0.607c-1.701,0.858 -3.207,2.343 -4.151,4.092l-0.811,1.504l-0.101,50c-0.069,34.221 0.025,50.607 0.298,51.925c0.476,2.293 2.34,4.66 4.636,5.888l1.558,0.833l50.907,-0l1.504,-0.812c0.827,-0.446 1.96,-1.292 2.518,-1.879c2.227,-2.347 2.181,-1.796 2.181,-26.432l0,-22.568l20.718,-0l-0.13,23.778c-0.125,22.946 -0.157,23.878 -0.934,26.651c-2.576,9.193 -9.093,17.481 -17.635,20.723c-1.807,0.686 -3.662,0.984 -34.88,0.958c-28.326,-0.024 -25.509,-0.113 -26.129,-0.199Z" style="fill:#00659b;"/><path d="M191.284,134.86c-1.85,-6.904 -4.849,-13.533 -8.841,-19.549c-3.736,-5.629 -11.338,-13.172 -17.161,-17.028c-9.745,-6.453 -22.512,-10.955 -33.46,-11.799l-2.985,-0.23l-0.197,29.135l-30.357,-24.289c-16.696,-13.358 -30.357,-24.371 -30.357,-24.472c0,-0.102 13.661,-11.115 30.357,-24.473l30.357,-24.289l0.188,14.561l0.188,14.561l4.898,1.23c5.706,1.432 10.155,3.086 15.403,5.725c26.869,13.516 44.653,43.997 43.26,74.15c-0.139,2.998 -0.384,6.128 -0.546,6.955l-0.293,1.504l-0.454,-1.692Z" style="fill:#00659b;"/></svg>