<?xml version="1.0" encoding="UTF-8" standalone="no"?><!DOCTYPE svg PUBLIC "-//W3C//DTD SVG 1.1//EN" "http://www.w3.org/Graphics/SVG/1.1/DTD/svg11.dtd"><svg width="100%" height="100%" viewBox="0 0 200 200" version="1.1" xmlns="http://www.w3.org/2000/svg" xmlns:xlink="http://www.w3.org/1999/xlink" xml:space="preserve" xmlns:serif="http://www.serif.com/" style="fill-rule:evenodd;clip-rule:evenodd;stroke-linejoin:round;stroke-miterlimit:2;"><path id="path225" d="M43.665,184.589c-1.369,-0.43 -2.448,-1.319 -2.96,-2.438c-0.513,-1.123 -7.25,-49.069 -7.249,-51.59c0.001,-2.389 1.234,-4.002 3.593,-4.704c1.082,-0.321 49.322,6.691 50.554,7.349c1.315,0.703 2.159,1.737 2.505,3.067c0.692,2.664 0.364,3.232 -5.231,9.076c-4.347,4.541 -5.052,5.413 -4.532,5.607c0.339,0.127 1.264,0.488 2.056,0.802c2.186,0.867 7.211,2.209 10.077,2.69c3.701,0.621 13.043,0.526 16.71,-0.171c23.096,-4.388 40.381,-23.069 43.45,-46.961c0.246,-1.919 0.454,-4.459 0.461,-5.644c0.022,-3.583 1.527,-6.008 4.031,-6.495c1.224,-0.238 21.189,2.618 22.193,3.175c0.341,0.189 1.022,0.892 1.513,1.562c0.851,1.161 0.891,1.376 0.848,4.601c-0.172,12.874 -4.751,28.437 -11.886,40.396c-4.479,7.509 -11.658,15.981 -17.979,21.217c-11.601,9.61 -25.275,15.691 -40.467,17.997c-4.641,0.704 -16.026,0.8 -20.634,0.174c-10.219,-1.389 -18.734,-4.12 -27.812,-8.92l-4.62,-2.443l-5.297,5.475c-5.999,6.201 -7.045,6.894 -9.324,6.178Zm-13.191,-80.75c-9.76,-1.494 -10.103,-1.601 -11.553,-3.627c-0.582,-0.813 -0.653,-1.349 -0.603,-4.57c0.22,-14.196 5.214,-30.219 13.359,-42.862c3.435,-5.332 5.937,-8.502 10.243,-12.979c22.229,-23.112 55.602,-30.733 85.473,-19.517c3.625,1.361 10.177,4.509 13.133,6.31l1.023,0.623l5.38,-5.517c4.343,-4.453 5.63,-5.587 6.673,-5.878c2.132,-0.595 4.477,0.404 5.429,2.312c0.322,0.647 1.781,10.282 4.001,26.425c3.798,27.625 3.75,26.925 1.958,28.705c-1.805,1.792 -1.105,1.845 -27.712,-2.099c-18.195,-2.696 -24.832,-3.797 -25.56,-4.238c-1.946,-1.178 -2.832,-4.349 -1.794,-6.423c0.215,-0.43 2.628,-3.126 5.362,-5.991l4.971,-5.21l-0.934,-0.375c-7.893,-3.169 -16.085,-4.435 -23.886,-3.691c-5.382,0.513 -8.09,1.095 -12.863,2.764c-11.608,4.058 -21.459,12.28 -28.064,23.42c-4.61,7.775 -7.594,18.466 -7.612,27.271c-0.007,3.254 -0.552,4.683 -2.245,5.881c-1.471,1.041 -3.153,0.954 -14.179,-0.734Z" style="fill:#00659b;fill-rule:nonzero;"/></svg>