<?xml version="1.0" encoding="UTF-8" standalone="no"?><!DOCTYPE svg PUBLIC "-//W3C//DTD SVG 1.1//EN" "http://www.w3.org/Graphics/SVG/1.1/DTD/svg11.dtd"><svg width="100%" height="100%" viewBox="0 0 200 200" version="1.1" xmlns="http://www.w3.org/2000/svg" xmlns:xlink="http://www.w3.org/1999/xlink" xml:space="preserve" xmlns:serif="http://www.serif.com/" style="fill-rule:evenodd;clip-rule:evenodd;stroke-linejoin:round;stroke-miterlimit:2;"><path d="M178.165,158.91l-19.255,19.255c-2.277,2.278 -5.975,2.278 -8.252,0l-128.823,-128.823c-2.278,-2.277 -2.278,-5.975 -0,-8.252l19.255,-19.255c2.277,-2.278 5.975,-2.278 8.252,-0l128.823,128.823c2.278,2.277 2.278,5.975 0,8.252Z" style="fill:#b32020;"/><path d="M41.09,178.165l-19.255,-19.255c-2.278,-2.277 -2.278,-5.975 -0,-8.252l128.823,-128.823c2.277,-2.278 5.975,-2.278 8.252,-0l19.255,19.255c2.278,2.277 2.278,5.975 0,8.252l-128.823,128.823c-2.277,2.278 -5.975,2.278 -8.252,0Z" style="fill:#b32020;"/></svg>